<svg xmlns="http://www.w3.org/2000/svg" width="538" height="127.99" viewBox="0 0 538 127.99"><defs><style>.a{fill:#00263a;}.b{fill:#9d2235;}</style></defs><g transform="translate(-15.365 -15.315)"><g transform="translate(237.894 122.333)"><path class="a" d="M98.662,58.956c-1.774-.621-2.665-1.195-2.673-2.19-.009-1.052.816-1.53,1.759-1.538,1.3-.009,1.912.816,1.927,2.39l5.756-.051c-.027-3.041-1.936-6.291-7.606-6.24-3.878.033-7.653,1.7-7.617,5.682.033,3.958,3.226,5.093,6.808,6.446,2.052.783,2.942,1.216,2.954,2.3.009,1.022-.735,1.664-1.9,1.676-1.467.012-2.444-.977-2.458-2.718l-5.756.051c.042,4.538,3.19,7.026,8.033,6.984,4.9-.042,7.892-2.39,7.856-6.4S102.022,60.115,98.662,58.956Z" transform="translate(-89.858 -50.772)"/><path class="a" d="M106.309,51.476l.111,12.588a2.341,2.341,0,1,1-4.678.042l-.108-12.591-5.753.051.11,12.645c.036,4.206,3.134,7.22,8.14,7.178,5.063-.045,8.081-3.113,8.045-7.319l-.111-12.645Z" transform="translate(-77.891 -50.575)"/><rect class="a" width="5.81" height="19.368" transform="translate(37.082 0.826) rotate(-0.503)"/><path class="a" d="M113.937,58.822c-1.775-.621-2.665-1.195-2.674-2.19-.009-1.052.816-1.53,1.759-1.538,1.3-.009,1.912.816,1.927,2.39l5.756-.051c-.027-3.041-1.936-6.291-7.608-6.24-3.874.033-7.65,1.7-7.615,5.682.033,3.958,3.226,5.093,6.808,6.446,2.052.783,2.942,1.216,2.954,2.3.009,1.022-.735,1.664-1.9,1.676-1.467.012-2.444-.977-2.458-2.718l-5.756.051c.042,4.538,3.19,7.026,8.033,6.984,4.9-.042,7.892-2.39,7.859-6.4S117.3,59.981,113.937,58.822Z" transform="translate(-59.503 -51.037)"/><path class="a" d="M119.9,58.77c-1.774-.621-2.665-1.195-2.674-2.19-.009-1.052.818-1.53,1.759-1.538,1.3-.009,1.912.816,1.927,2.39l5.756-.051c-.027-3.041-1.936-6.291-7.606-6.24-3.877.033-7.653,1.7-7.617,5.682.033,3.958,3.226,5.093,6.808,6.446,2.052.783,2.943,1.216,2.954,2.3.009,1.022-.735,1.664-1.9,1.676-1.467.012-2.444-.977-2.458-2.718l-5.756.051c.042,4.538,3.19,7.026,8.033,6.984,4.9-.042,7.889-2.39,7.856-6.4S123.264,59.929,119.9,58.77Z" transform="translate(-47.647 -51.14)"/><path class="a" d="M129.888,66.3l-6.724.06-.027-3.238,6.721-.057-.036-4.122L123.1,59l-.03-3.379,6.721-.057-.036-4.317-12.478.108.17,19.369,12.477-.108Z" transform="translate(-35.368 -50.924)"/></g><g transform="translate(229.49 15.315)"><path class="a" d="M144.713,15.935l-7.952,27.444-8.236-27.3-10.873.1-7.824,27.444-8.364-27.3-14.419.125,16.914,45.7,11.862-.1,7.45-25.018L131.089,61.9l11.925-.1L159.13,15.81Z" transform="translate(-87.045 -14.333)"/><path class="a" d="M135.746,15.316c-15.728.137-24.737,11.743-24.627,24.382s9.32,24.086,25.048,23.949c15.79-.137,24.8-11.743,24.689-24.382S151.536,15.179,135.746,15.316Zm.314,35.889c-6.951.06-11.127-5.535-11.178-11.626s4.024-11.758,10.972-11.817c7.011-.06,11.124,5.532,11.175,11.623S143.067,51.142,136.059,51.205Z" transform="translate(-39.206 -15.315)"/><path class="a" d="M169.008,32.521c-.081-9.234-6.9-17.033-17.383-16.941l-22.019.191.4,45.839,13.631-.117-.1-11.725,2.554-.021,7.9,11.653,16.056-.14-9.3-13.867A16.785,16.785,0,0,0,169.008,32.521Zm-19.934,6.656-5.631.051-.114-12.968,5.7-.051c3.668-.03,6.055,2.9,6.085,6.431S152.745,39.146,149.074,39.176Z" transform="translate(-2.467 -14.791)"/><path class="a" d="M187.646,61.228,170.6,38.45l16.642-23.064-15.988.14L158.706,34.364l-.164-18.727-13.628.12.4,45.839,13.631-.117-.161-18.664,12.878,18.551Z" transform="translate(27.953 -15.175)"/></g><g transform="translate(235.151 65.635)"><path class="b" d="M114.4,68.8c-7.142.063-11.45-5.01-11.507-11.686-.054-6.222,3.7-11.821,11.041-11.886,5.631-.048,8.941,3.328,9.765,7.644l14.282-.125c-1.341-11.056-9.738-20.023-24.552-19.892-15.465.135-24.6,11.677-24.492,24.379.11,12.77,9.514,24.083,25.311,23.946,14.088-.122,22.53-8.971,23.946-19.527l-14.416.125C122.959,65.583,119.45,68.755,114.4,68.8Z" transform="translate(-88.94 -30.783)"/><path class="b" d="M131.132,32.7c-15.728.137-24.734,11.743-24.624,24.382s9.317,24.083,25.045,23.946c15.793-.137,24.8-11.743,24.689-24.379S146.925,32.563,131.132,32.7Zm.314,35.886c-6.945.06-11.124-5.532-11.175-11.623S124.3,45.2,131.239,45.142c7.014-.06,11.124,5.535,11.178,11.626S138.456,68.523,131.445,68.586Z" transform="translate(-54.03 -31.089)"/><path class="b" d="M153.829,33.021l.236,27.178L138.887,33.153l-13.893.122.4,45.839,13.631-.119L138.8,52.737l15.235,26.126,13.894-.12-.4-45.842Z" transform="translate(-17.293 -30.686)"/><path class="b" d="M173.509,32.792l-32.5.284.1,11.656,9.437-.084.3,34.183,13.631-.117-.3-34.186,9.437-.081Z" transform="translate(14.525 -30.904)"/><path class="b" d="M193.064,49.653c-.081-9.234-6.9-17.033-17.386-16.941l-22.019.191.4,45.839,13.631-.117-.1-11.722,2.557-.021,7.9,11.65,16.053-.14-9.3-13.867A16.781,16.781,0,0,0,193.064,49.653Zm-19.931,6.659-5.637.051L167.383,43.4l5.7-.051c3.668-.03,6.055,2.895,6.085,6.431S176.8,56.282,173.133,56.312Z" transform="translate(39.672 -31.064)"/><path class="b" d="M192.894,32.161c-15.728.137-24.737,11.743-24.627,24.382s9.32,24.083,25.048,23.946c15.79-.137,24.8-11.743,24.692-24.379S208.685,32.024,192.894,32.161Zm.314,35.886c-6.948.06-11.127-5.532-11.178-11.623S186.054,44.663,193,44.6c7.011-.06,11.124,5.535,11.175,11.626S200.216,67.984,193.208,68.047Z" transform="translate(68.7 -32.16)"/><path class="b" d="M212.675,66.528l-11.994.1-.3-34.186-13.631.119.4,45.842,25.621-.224Z" transform="translate(105.44 -31.59)"/></g><path class="a" d="M83.526,27.429a63.366,63.366,0,0,1,8.218,6.817L102.952,45.26a37.8,37.8,0,1,1-8.923,60.432l-9.924-9.756L67.073,79.2,83.819,62.156,73.9,52.405a37.776,37.776,0,0,0-9.487-6.8L31.08,79.526l33.9,33.311,11.208,11.014a63.277,63.277,0,1,0,7.343-96.422" transform="translate(31.229 0.295)"/><path class="b" d="M114.755,26.991a63.276,63.276,0,1,0,.872,103.235,62.873,62.873,0,0,1-8.215-6.814L96.2,112.4a37.805,37.805,0,1,1,8.923-60.432l9.921,9.75,17.033,16.737L115.335,95.5l9.924,9.756a37.714,37.714,0,0,0,9.49,6.8l33.328-33.917-33.9-33.311L122.973,33.808a63.365,63.365,0,0,0-8.218-6.817" transform="translate(0 0.733)"/></g></svg>